<svg id="Camada_1" data-name="Camada 1" xmlns="http://www.w3.org/2000/svg" viewBox="0 0 262.87 102.72"><defs><style>.cls-1{fill:#f9f5d9;}.cls-2,.cls-9{fill:#faac19;}.cls-3{fill:#74471e;}.cls-4,.cls-7,.cls-8{fill:#b11f24;}.cls-4{stroke:#b11f24;stroke-width:0.64px;}.cls-4,.cls-6,.cls-8,.cls-9{stroke-miterlimit:10;}.cls-5{fill:#ffd789;}.cls-6{fill:#d48d29;stroke:#d48d29;stroke-width:1.33px;}.cls-8,.cls-9{stroke:#f9f4d9;stroke-width:11px;}.cls-10{fill:#242568;}.cls-11{fill:#fff;}</style></defs><title>logo</title><path class="cls-1" d="M232,466.84c-22.34,2.22-42.36-4.15-52-15.15,4.8,16,25.35,26.69,52.89,24s45.6-17.22,47.16-33.88C272.74,454.45,254.36,464.62,232,466.84Z" transform="translate(-166.91 -373.36)"/><path class="cls-1" d="M282.61,423.9l-5.38,3.69-36.82,25.24c-4.7,3.22-13.48,4.09-18.72,1.86l-41.62-17.76L174,434.35a20.85,20.85,0,0,0,0,4.18,23.38,23.38,0,0,0,6,13.16c9.66,11,29.68,17.37,52,15.15s40.72-12.39,48-25.07a23.35,23.35,0,0,0,3.29-14.08A21.88,21.88,0,0,0,282.61,423.9Z" transform="translate(-166.91 -373.36)"/><path class="cls-1" d="M285.77,409.49l-5.23-4.79a21.86,21.86,0,0,0-4-2.82c.08.44.14.87.18,1.3a20.59,20.59,0,0,1-1.29,9.33,27.46,27.46,0,0,1-4.2,7.28c-7.9,10-23.44,17.72-41.91,19.55s-35.22-2.68-44.93-10.94a27.72,27.72,0,0,1-5.55-6.31,20.45,20.45,0,0,1-3.09-8.89c0-.27-.05-.55-.07-.82a20,20,0,0,0-2.76,3l-4.19,5.73c-3.37,4.59-1.83,10.19,3.41,12.43l1.9.81,6.06,2.58,41.62,17.76c5.24,2.23,14,1.36,18.72-1.86l36.82-25.24,5.38-3.69,2.26-1.55C289.57,419.13,290,413.34,285.77,409.49Z" transform="translate(-166.91 -373.36)"/><path class="cls-1" d="M276.51,403.66c-2.77-16.74-26.73-32.7-53.91-30-27.44,2.72-47.93,23.44-46.95,40.49,0,.28,0,.55.07.82a20.45,20.45,0,0,0,3.09,8.89,27.56,27.56,0,0,0,5.55,6.32c9.71,8.25,26.47,12.77,44.93,10.94s34-9.55,41.91-19.56a27.46,27.46,0,0,0,4.2-7.28,20.53,20.53,0,0,0,1.29-9.32C276.65,404.53,276.59,404.09,276.51,403.66Z" transform="translate(-166.91 -373.36)"/><path class="cls-2" d="M231,461.61c-19.77,2-37.49-3.67-46-13.41,4.24,14.2,22.43,23.63,46.81,21.21s40.36-15.24,41.74-30C267,450.65,250.76,459.65,231,461.61Z" transform="translate(-166.91 -373.36)"/><path class="cls-3" d="M275.76,423.61,271,426.87l-32.6,22.34c-4.16,2.85-11.93,3.63-16.57,1.65L185,435.14l-5.37-2.29a19.16,19.16,0,0,0,0,3.71A20.65,20.65,0,0,0,185,448.2c8.55,9.74,26.27,15.38,46,13.41s36-11,42.51-22.19A20.65,20.65,0,0,0,276.41,427,18,18,0,0,0,275.76,423.61Z" transform="translate(-166.91 -373.36)"/><path class="cls-4" d="M267.18,416.64l-4,2.73L235.9,438.08c-3.48,2.39-10,3-13.88,1.37l-30.84-13.16-4.49-1.91a16.05,16.05,0,0,0,0,3.1,17.29,17.29,0,0,0,4.44,9.75c7.16,8.16,22,12.87,38.55,11.23s30.18-9.18,35.6-18.58a17.24,17.24,0,0,0,2.44-10.43A15.51,15.51,0,0,0,267.18,416.64Z" transform="translate(-166.91 -373.36)"/><path class="cls-5" d="M278.56,410.86l-4.63-4.25a19.43,19.43,0,0,0-3.56-2.49c.06.39.12.77.16,1.15a18.27,18.27,0,0,1-1.15,8.26,24.1,24.1,0,0,1-3.72,6.44c-7,8.85-20.74,15.68-37.08,17.3s-31.18-2.37-39.77-9.68A24.21,24.21,0,0,1,183.9,422a17.94,17.94,0,0,1-2.74-7.86c0-.24,0-.49-.06-.73a18.11,18.11,0,0,0-2.45,2.65l-3.71,5.08a7,7,0,0,0,3,11l1.68.71,5.37,2.29,36.83,15.72c4.64,2,12.41,1.2,16.57-1.65L271,426.87l4.75-3.26,2-1.37C281.92,419.39,282.28,414.27,278.56,410.86Z" transform="translate(-166.91 -373.36)"/><path class="cls-2" d="M270.37,404.12c-2.45-14.82-23.66-28.94-47.72-26.55-24.29,2.41-42.42,20.74-41.55,35.84,0,.24,0,.49.06.73A17.94,17.94,0,0,0,183.9,422a24.21,24.21,0,0,0,4.91,5.59c8.59,7.31,23.42,11.31,39.77,9.68s30.09-8.45,37.08-17.3a24.1,24.1,0,0,0,3.72-6.44,18.27,18.27,0,0,0,1.15-8.26C270.49,404.89,270.43,404.51,270.37,404.12Z" transform="translate(-166.91 -373.36)"/><path class="cls-6" d="M202.87,396.33c-1.06.1-1.88.51-1.84.91s.92.64,2,.53,1.88-.51,1.84-.91S203.93,396.22,202.87,396.33Z" transform="translate(-166.91 -373.36)"/><path class="cls-6" d="M226.34,395.52c-1-.43-1.89-.49-2.05-.12s.49,1,1.46,1.44,1.89.49,2.05.12S227.31,396,226.34,395.52Z" transform="translate(-166.91 -373.36)"/><path class="cls-6" d="M221.13,385.6c-1.06.1-1.88.51-1.84.91s.92.64,2,.53,1.89-.51,1.85-.91S222.19,385.49,221.13,385.6Z" transform="translate(-166.91 -373.36)"/><path class="cls-6" d="M216.56,392.53c-1-.28-1.94-.2-2,.19s.63.92,1.66,1.2,1.94.2,2-.18S217.59,392.81,216.56,392.53Z" transform="translate(-166.91 -373.36)"/><path class="cls-6" d="M207.17,387c-.35-.2-1.06.38-1.59,1.31s-.68,1.83-.33,2,1.06-.39,1.59-1.31S207.52,387.24,207.17,387Z" transform="translate(-166.91 -373.36)"/><path class="cls-6" d="M246.91,385.54c-1.06.1-1.89.51-1.85.91s.93.63,2,.53,1.88-.52,1.84-.91S248,385.43,246.91,385.54Z" transform="translate(-166.91 -373.36)"/><path class="cls-6" d="M242.34,392.46c-1-.28-1.94-.19-2.05.19s.64.93,1.67,1.21,1.94.2,2-.19S243.37,392.74,242.34,392.46Z" transform="translate(-166.91 -373.36)"/><path class="cls-6" d="M233,387c-.35-.2-1.06.38-1.59,1.3s-.68,1.83-.33,2,1.06-.38,1.59-1.31S233.3,387.18,233,387Z" transform="translate(-166.91 -373.36)"/><path class="cls-7" d="M234.57,416.4A7.87,7.87,0,1,1,218.91,418" transform="translate(-166.91 -373.36)"/><path class="cls-8" d="M289.82,410c.29.1,0,.86-.65,1.68,0,0-5.67,7.23-9.81,7.61-6.08.56-9.54-3.68-10-8.38-.4-4.39,5.6-9.58,5.6-9.58a1.57,1.57,0,0,0,0-2.47s-3.29-2.72-3.53-5.32c-.38-4.16,2.77-8.59,9-9.17,4.1-.38,8.26.95,8.67,5.38.22,2.42-.45,4.28-2.7,4.48a1.85,1.85,0,0,1-.93-.05,1.79,1.79,0,0,1-.69-2.54,4.3,4.3,0,0,0,.59-2.29c-.06-.73-.39-3.37-3.22-3.11a5.4,5.4,0,0,0-4.86,6.11c.25,2.65,4.94,5.91,4.94,5.91a1.49,1.49,0,0,1,.18,2.41s-5.72,5.42-5.43,8.57c.3,3.33,2.89,5.86,5.71,5.6,3.4-.31,5.5-3.44,5.5-3.44C288.81,410.48,289.53,409.85,289.82,410Z" transform="translate(-166.91 -373.36)"/><path class="cls-8" d="M296.54,387.35c1-.24,1.77.28,1.67,1.15s0,5.71.67,5.65,1.28.29,1.23.8A1.48,1.48,0,0,1,298.7,396c-.73.06-1.42,1-1.53,2,0,0-1.49,13-1.46,13.15s.33,1.1.66,2l1.76-.17c1.76-.16,4.22-3.08,4.22-3.08a4.64,4.64,0,0,1,2-1.54c.41,0,.25.64-.36,1.49,0,0-5.15,7.26-8.59,7.58s-5.61-1.05-5.92-4.48c-.22-2.42,1.32-14.41,1.32-14.41.14-1.05-.08-1.87-.48-1.83s-.68-.36-.63-.87a1.06,1.06,0,0,1,.82-1c.4,0,.82-.92.94-2l.31-2.63a2.93,2.93,0,0,1,2.08-2.33Z" transform="translate(-166.91 -373.36)"/><path class="cls-8" d="M311.08,412.74c2.16-.2,5.74-5.16,5.74-5.16a4,4,0,0,1,2.11-1.64c.54-.05.55.65,0,1.55,0,0-4.91,8.3-10.6,8.82-4.23.39-6.83-2.74-7.19-6.67-.53-5.8.92-16.2,8.94-16.94,3.61-.33,5.78,1,6.08,4.24.51,5.57-7.39,9.39-7.39,9.39-.95.46-1.72,1.16-1.72,1.55a9.16,9.16,0,0,0,1,2.9S309.36,412.9,311.08,412.74Zm.68-17.75c-2.46.23-4.15,8.08-4.15,8.08-.22,1,.32,1.4,1.2.83,0,0,5-3.25,4.73-6.49C313.45,396.45,313.09,394.87,311.76,395Z" transform="translate(-166.91 -373.36)"/><path class="cls-8" d="M330.35,394.53a1.44,1.44,0,0,0-1.78-1.4c-3.7.33-5.4,8-4.94,12.93.24,2.7,1,4.84,3.66,4.59,3.13-.28,6-3.56,6-3.56a4.73,4.73,0,0,1,2-1.5c.41,0,.4.72,0,1.68a13.58,13.58,0,0,1-10.78,7.55c-3.66.34-6.23-1.54-6.73-6.93-.61-6.67,1.36-15.74,9.91-16.53a5,5,0,0,1,3.83,1.32,5.81,5.81,0,0,1,1.33,1.85c0,.25-.37,1-.7.85l-.53,0-.4,0c-.54.2-.92,0-.85-.57Z" transform="translate(-166.91 -373.36)"/><path class="cls-8" d="M341,381.33a1.27,1.27,0,0,1,1.66,1.47l-.75,6.76c-.11,1,.5,1.41,1.36.81a4.67,4.67,0,0,1,2.1-.58c4.23-.39,5.88,2.59,6.13,5.28.66,7.18-2.2,17.62-10.09,18.34a7.55,7.55,0,0,1-6.67-3,6.5,6.5,0,0,1-1.11-2.29c0-.39.18-2.41.3-3.45l2.28-20.4A2.91,2.91,0,0,1,338.3,382Zm2.77,11.37a2.57,2.57,0,0,0-.57.09,3.65,3.65,0,0,0-2,2.67l-1,8.67c-.11,1-.29,2.75-.38,3.8a5.16,5.16,0,0,0,.05.64c.12,1.37.77,1.63,2.09,1.51,3.62-.33,4.87-10.95,4.56-14.23C346.35,393.11,344.88,392.6,343.78,392.7Z" transform="translate(-166.91 -373.36)"/><path class="cls-8" d="M360,379.59a1.27,1.27,0,0,1,1.65,1.47l-.74,6.76c-.12,1,.49,1.41,1.36.81a4.61,4.61,0,0,1,2.1-.58c4.23-.39,5.88,2.59,6.13,5.28.66,7.17-2.21,17.62-10.1,18.34a7.57,7.57,0,0,1-6.67-3,6.62,6.62,0,0,1-1.1-2.29c0-.39.17-2.41.29-3.45l2.29-20.4a2.91,2.91,0,0,1,2.07-2.34ZM362.74,391a2.57,2.57,0,0,0-.57.09,3.67,3.67,0,0,0-2,2.67l-1,8.67c-.12,1-.29,2.75-.39,3.8,0,0,0,.05,0,.64.13,1.37.78,1.63,2.1,1.51,3.61-.33,4.86-10.95,4.56-14.23C365.31,391.37,363.84,390.86,362.74,391Z" transform="translate(-166.91 -373.36)"/><path class="cls-9" d="M287.5,424.35a1.26,1.26,0,0,1,1.69,1.4l-.53,6.58a5.58,5.58,0,0,0,0,1.88A13.68,13.68,0,0,0,290.3,433s4.44-3.69,4-7.14c-.34-2.55-2.09-4.58-5.64-4.11-7.36,1-10.26,10.85-10.26,10.85a6.11,6.11,0,0,0-.06,3.14,1.18,1.18,0,0,1-1.33,1.52,4.08,4.08,0,0,1-3.55-3.58c-.81-6,6.79-12.94,14.38-13.95,7.14-.95,10.79,2.17,11.29,5.9.36,2.68-2.42,6.27-2.42,6.27a1.6,1.6,0,0,0,.51,2.44s4.07,2.24,4.54,5.79c.79,5.86-2.31,13.54-7.31,14.21a5.67,5.67,0,0,1-4.37-1.13,4.39,4.39,0,0,1-1.44-2.17c0-.48.83-1.77,1.55-1.41a3.21,3.21,0,0,0,3.11-.94s2.74-3.59,2.22-7.45a5.85,5.85,0,0,0-3.14-4.23,6.09,6.09,0,0,0-2.46-.69,3.16,3.16,0,0,0-1.68,2.23l-1.11,14.1a2.46,2.46,0,0,1-2,2.15l-2.76.37a1.48,1.48,0,0,1-1.74-1.65l2-25.93a2.92,2.92,0,0,1,2-2.41Z" transform="translate(-166.91 -373.36)"/><path class="cls-9" d="M321.67,426.75a1.49,1.49,0,0,1,1.76,1.65l-.92,12.08c-.08,1-.17,2.37-.2,2.93l.06.41c.13,1,.68,1.67,2.5,1.43s4.28-3.31,4.28-3.31a4.72,4.72,0,0,1,2-1.6c.43-.06.29.61-.29,1.48,0,0-5.08,7.52-8.62,8a5.62,5.62,0,0,1-4.85-1.62,1.68,1.68,0,0,0-2.55,0s-2.79,3-4.74,3.29a5.71,5.71,0,0,1-5.35-2.57,7.93,7.93,0,0,1-1-2.36c0-.41.08-2.48.16-3.53l.92-12.08a2.47,2.47,0,0,1,2-2.16l2.76-.37a1.49,1.49,0,0,1,1.75,1.65l-.92,12.08c-.08,1-.17,2.37-.2,2.93l.06.41c.13,1,.69,1.67,2.5,1.43a3.2,3.2,0,0,0,1.62-.76,4.91,4.91,0,0,0,1.4-1.8c0-.26.13-1.91.21-2.95l.92-12.09a2.46,2.46,0,0,1,2-2.15Z" transform="translate(-166.91 -373.36)"/><path class="cls-9" d="M333.63,425.15c1-.14,1.85.27,1.8.92s.55.6,1.35-.09a8,8,0,0,1,3.61-1.73c2.05-.28,3.43.74,3.66,2.47a3.5,3.5,0,0,1-2.93,4c-2.55.34-1.68-2.83-3-2.65s-1.64.48-1.64.48a6.33,6.33,0,0,0-1.45,3.3l-1.1,14.51a2.46,2.46,0,0,1-2,2.16l-2.76.37a1.49,1.49,0,0,1-1.75-1.65l1.5-19.56a2.46,2.46,0,0,1,2-2.16Z" transform="translate(-166.91 -373.36)"/><path class="cls-9" d="M362.32,421.32a1.49,1.49,0,0,1,1.75,1.65l-1.29,16.9c-.08,1.05.51,1.35,1.31.67l3.68-5c.51-.91,1-.85,1.08.14a6.7,6.7,0,0,1-.85,3.44l-3.94,4.31a4.17,4.17,0,0,0-1.77,2.87,12,12,0,0,1-1,3.59S358,456.6,355,457c-2.77.37-5.28-.77-5.68-3.73-.5-3.73,4.85-6.77,4.85-6.77a3.47,3.47,0,0,0,1.76-2c0-.58-.55-.47-1.33.24a7.11,7.11,0,0,1-3.52,1.59c-4.37.58-6.13-2.93-6.49-5.61-.84-6.28,7.78-16.71,7.78-16.71a3.36,3.36,0,0,1,2.76-1.22c.85.14,2.39.89,2.44.27s1-1.23,2-1.37Zm-12.26,17.79c.29,2.18,1.7,2.68,3.7,2.42A2,2,0,0,0,355,441a6.68,6.68,0,0,0,1.41-3.35l.71-9.14a3.62,3.62,0,0,0-.9-2.76c-.57-.47-2.18,0-2.64,1C353.59,426.73,349.54,435.19,350.06,439.11Zm3.41,14.49c.91-.13,1.59-2.56,1.59-2.56a20,20,0,0,0,.56-2.54c0-.39-.68-.23-1.56.34,0,0-2.57,1.69-2.33,3.46A1.56,1.56,0,0,0,353.47,453.6Z" transform="translate(-166.91 -373.36)"/><path class="cls-9" d="M385.69,418.2a1.49,1.49,0,0,1,1.75,1.65l-.92,12.08c-.08,1.05-.17,2.37-.19,2.93l.05.41c.13,1,.69,1.67,2.5,1.43s4.28-3.31,4.28-3.31a4.64,4.64,0,0,1,2-1.6c.43-.06.3.61-.29,1.48,0,0-5.08,7.52-8.62,8a5.62,5.62,0,0,1-4.85-1.62,1.67,1.67,0,0,0-2.55,0s-2.79,3-4.74,3.28a5.69,5.69,0,0,1-5.35-2.56,7.85,7.85,0,0,1-1.05-2.37c0-.4.08-2.48.16-3.52l.92-12.08a2.47,2.47,0,0,1,2-2.16l2.76-.37a1.49,1.49,0,0,1,1.75,1.65l-.92,12.08c-.08,1.05-.17,2.37-.19,2.93l.05.41c.13,1,.69,1.67,2.51,1.43a3.2,3.2,0,0,0,1.61-.76,4.91,4.91,0,0,0,1.4-1.8c0-.27.13-1.91.21-3l.92-12.08a2.48,2.48,0,0,1,2-2.16Z" transform="translate(-166.91 -373.36)"/><path class="cls-9" d="M401.27,435.92c2.23-.3,5.76-5.45,5.76-5.45a4.2,4.2,0,0,1,2.1-1.71c.56-.07.6.61.09,1.53,0,0-4.78,8.54-10.65,9.32-4.36.58-7.17-2.42-7.69-6.33-.77-5.77.33-16.24,8.6-17.34,3.73-.5,6,.76,6.45,3.95.74,5.54-7.34,9.76-7.34,9.76-.93.49-1.68,1.2-1.67,1.6a9,9,0,0,0,1.18,2.84S399.5,436.16,401.27,435.92Zm0-17.77c-2.55.34-4,8.27-4,8.27-.19,1,.37,1.39,1.23.8l4.16-4.9a8.76,8.76,0,0,0,.12-3.71S402.67,418,401.31,418.15Z" transform="translate(-166.91 -373.36)"/><path class="cls-9" d="M413.83,414.44c1-.14,1.85.27,1.79.91s.56.61,1.35-.08a8.14,8.14,0,0,1,3.62-1.74c2-.27,3.43.75,3.66,2.48a3.51,3.51,0,0,1-2.94,4c-2.54.34-1.67-2.83-3-2.65s-1.64.47-1.64.47a6.36,6.36,0,0,0-1.45,3.31l-1.1,14.51a2.47,2.47,0,0,1-2,2.16l-2.76.37a1.49,1.49,0,0,1-1.75-1.65L409,417a2.48,2.48,0,0,1,2-2.16Z" transform="translate(-166.91 -373.36)"/><ellipse class="cls-10" cx="242.87" cy="405.45" rx="8.69" ry="6.71" transform="translate(-342.99 250.85) rotate(-86.65)"/><ellipse class="cls-11" cx="240.65" cy="403.55" rx="3" ry="1.8" transform="translate(-347.77 237.77) rotate(-85.41)"/><ellipse class="cls-11" cx="245.92" cy="407.98" rx="1.5" ry="0.9" transform="translate(-333.4 273.04) rotate(-88.95)"/><ellipse class="cls-10" cx="209.72" cy="409.04" rx="8.69" ry="6.71" transform="translate(-377.79 221.14) rotate(-86.65)"/><ellipse class="cls-11" cx="207.51" cy="407.14" rx="3" ry="1.8" transform="matrix(0.08, -1, 1, 0.08, -381.85, 208.03)"/><ellipse class="cls-11" cx="212.77" cy="411.58" rx="1.5" ry="0.9" transform="translate(-369.54 243.43) rotate(-88.95)"/><path class="cls-2" d="M287.14,424a1.25,1.25,0,0,1,1.69,1.4l-.52,6.58a5.44,5.44,0,0,0,0,1.88,13.68,13.68,0,0,0,1.63-1.24s4.45-3.69,4-7.15c-.34-2.54-2.1-4.57-5.64-4.1-7.37,1-10.26,10.85-10.26,10.85a6,6,0,0,0-.07,3.14,1.18,1.18,0,0,1-1.33,1.52,4.08,4.08,0,0,1-3.55-3.58c-.8-6,6.79-12.94,14.38-14,7.14-.95,10.8,2.17,11.29,5.9.36,2.68-2.41,6.27-2.41,6.27a1.59,1.59,0,0,0,.5,2.44s4.07,2.24,4.55,5.79c.78,5.86-2.31,13.54-7.32,14.21a5.69,5.69,0,0,1-4.37-1.13,4.35,4.35,0,0,1-1.43-2.17c0-.48.82-1.77,1.54-1.41a3.22,3.22,0,0,0,3.11-.94s2.74-3.59,2.23-7.45a5.91,5.91,0,0,0-3.15-4.24,6.16,6.16,0,0,0-2.46-.68,3.16,3.16,0,0,0-1.68,2.23l-1.1,14.09a2.49,2.49,0,0,1-2.05,2.16l-2.76.37a1.48,1.48,0,0,1-1.74-1.65l2-25.93a2.92,2.92,0,0,1,2-2.41Z" transform="translate(-166.91 -373.36)"/><path class="cls-2" d="M321.32,426.39a1.49,1.49,0,0,1,1.75,1.65l-.92,12.08c-.08,1.05-.17,2.37-.19,2.93l.05.41c.14,1,.69,1.67,2.51,1.43s4.27-3.31,4.27-3.31a4.65,4.65,0,0,1,2-1.6c.42-.06.29.61-.3,1.48,0,0-5.07,7.52-8.62,8a5.62,5.62,0,0,1-4.85-1.62,1.68,1.68,0,0,0-2.55,0s-2.78,3-4.74,3.29a5.71,5.71,0,0,1-5.35-2.57,7.93,7.93,0,0,1-1.05-2.36c0-.41.08-2.48.16-3.53l.92-12.08a2.47,2.47,0,0,1,2-2.16l2.76-.37a1.49,1.49,0,0,1,1.75,1.65L310,441.74c-.08,1.05-.16,2.37-.19,2.93l.05.41c.14,1,.69,1.67,2.51,1.43a3.26,3.26,0,0,0,1.62-.76,5,5,0,0,0,1.39-1.8c0-.27.13-1.91.21-2.95l.92-12.09a2.48,2.48,0,0,1,2-2.16Z" transform="translate(-166.91 -373.36)"/><path class="cls-2" d="M333.27,424.79c1.05-.14,1.86.27,1.8.92s.55.6,1.35-.09a8.06,8.06,0,0,1,3.62-1.73c2-.28,3.43.74,3.66,2.47a3.51,3.51,0,0,1-2.94,4c-2.55.34-1.67-2.83-3-2.65s-1.63.48-1.63.48a6.33,6.33,0,0,0-1.45,3.3L333.53,446a2.46,2.46,0,0,1-2,2.16l-2.75.37a1.48,1.48,0,0,1-1.75-1.65l1.49-19.56a2.47,2.47,0,0,1,2-2.16Z" transform="translate(-166.91 -373.36)"/><path class="cls-2" d="M362,421a1.49,1.49,0,0,1,1.75,1.65l-1.29,16.9c-.08,1.05.51,1.35,1.31.67l3.68-5c.52-.92,1-.85,1.09.14a6.71,6.71,0,0,1-.86,3.44l-3.94,4.31a4.2,4.2,0,0,0-1.77,2.87,11.71,11.71,0,0,1-1,3.59s-3.3,6.7-6.3,7.1c-2.78.37-5.29-.77-5.68-3.73-.5-3.73,4.85-6.77,4.85-6.77a3.49,3.49,0,0,0,1.75-2c.05-.58-.55-.47-1.32.24a7.17,7.17,0,0,1-3.53,1.59c-4.36.58-6.13-2.93-6.49-5.61-.83-6.28,7.79-16.71,7.79-16.71a3.36,3.36,0,0,1,2.75-1.22c.85.14,2.39.89,2.45.27s1-1.24,2-1.38ZM349.7,438.75c.29,2.18,1.7,2.68,3.7,2.42a2.14,2.14,0,0,0,1.26-.52,6.86,6.86,0,0,0,1.41-3.35l.7-9.14a3.66,3.66,0,0,0-.89-2.76c-.57-.47-2.19,0-2.64,1C353.24,426.37,349.18,434.83,349.7,438.75Zm3.42,14.49c.91-.13,1.58-2.56,1.58-2.56a20,20,0,0,0,.56-2.54c0-.39-.68-.23-1.55.34,0,0-2.58,1.69-2.34,3.46A1.57,1.57,0,0,0,353.12,453.24Z" transform="translate(-166.91 -373.36)"/><path class="cls-2" d="M385.33,417.84a1.49,1.49,0,0,1,1.75,1.65l-.92,12.08c-.08,1.05-.16,2.37-.19,2.93l0,.41c.14,1,.69,1.67,2.51,1.42s4.27-3.3,4.27-3.3a4.65,4.65,0,0,1,2-1.6c.42-.06.29.61-.3,1.48,0,0-5.07,7.52-8.62,8a5.62,5.62,0,0,1-4.85-1.62,1.67,1.67,0,0,0-2.55,0s-2.78,3-4.74,3.28a5.69,5.69,0,0,1-5.35-2.56,7.76,7.76,0,0,1-1-2.37c0-.4.08-2.48.16-3.52l.91-12.09a2.48,2.48,0,0,1,2-2.16l2.76-.36a1.49,1.49,0,0,1,1.75,1.65L374,433.19c-.08,1.05-.16,2.37-.19,2.93l.05.41c.14,1,.69,1.67,2.51,1.43a3.26,3.26,0,0,0,1.62-.76,5,5,0,0,0,1.39-1.8c0-.27.14-1.91.22-3l.91-12.08a2.47,2.47,0,0,1,2-2.16Z" transform="translate(-166.91 -373.36)"/><path class="cls-2" d="M400.92,435.56c2.22-.3,5.75-5.45,5.75-5.45a4.22,4.22,0,0,1,2.11-1.71c.56-.07.6.61.08,1.53,0,0-4.78,8.54-10.64,9.32-4.37.58-7.18-2.42-7.7-6.33-.77-5.77.33-16.24,8.61-17.34,3.73-.5,6,.76,6.45,3.95.74,5.54-7.34,9.76-7.34,9.76-.94.48-1.69,1.2-1.67,1.6a8.73,8.73,0,0,0,1.17,2.84S399.14,435.79,400.92,435.56Zm0-17.78c-2.55.34-4,8.28-4,8.28-.19,1,.36,1.39,1.23.8l4.16-4.91a8.87,8.87,0,0,0,.11-3.7S402.31,417.6,401,417.78Z" transform="translate(-166.91 -373.36)"/><path class="cls-2" d="M413.47,414.08c1-.14,1.85.27,1.8.91s.55.61,1.34-.08a8.14,8.14,0,0,1,3.62-1.74c2-.27,3.43.75,3.66,2.48a3.51,3.51,0,0,1-2.93,4c-2.55.34-1.68-2.83-3-2.65s-1.64.47-1.64.47a6.36,6.36,0,0,0-1.45,3.31l-1.1,14.51a2.47,2.47,0,0,1-2,2.16l-2.76.37a1.49,1.49,0,0,1-1.75-1.65l1.49-19.57a2.48,2.48,0,0,1,2-2.16Z" transform="translate(-166.91 -373.36)"/><path class="cls-7" d="M289.82,410c.29.1,0,.86-.65,1.68,0,0-5.67,7.23-9.81,7.61-6.08.56-9.54-3.68-10-8.39-.4-4.38,5.6-9.57,5.6-9.57a1.57,1.57,0,0,0,0-2.47s-3.29-2.72-3.53-5.32c-.38-4.16,2.77-8.59,9-9.17,4.1-.38,8.26.95,8.67,5.38.22,2.42-.45,4.28-2.7,4.48a1.85,1.85,0,0,1-.93-.05,1.79,1.79,0,0,1-.69-2.54,4.3,4.3,0,0,0,.59-2.29c-.06-.73-.39-3.37-3.22-3.11a5.4,5.4,0,0,0-4.86,6.11c.25,2.65,4.94,5.91,4.94,5.91a1.49,1.49,0,0,1,.18,2.41s-5.72,5.42-5.43,8.57c.3,3.33,2.89,5.86,5.71,5.6,3.39-.31,5.5-3.44,5.5-3.44C288.81,410.48,289.53,409.85,289.82,410Z" transform="translate(-166.91 -373.36)"/><path class="cls-7" d="M296.54,387.35c1-.24,1.77.28,1.67,1.15s0,5.71.67,5.65,1.28.29,1.23.8A1.46,1.46,0,0,1,298.7,396c-.73.07-1.42,1-1.53,2,0,0-1.49,13-1.46,13.15s.33,1.1.66,2l1.76-.17c1.76-.16,4.22-3.08,4.22-3.08a4.64,4.64,0,0,1,2-1.54c.41,0,.25.63-.36,1.49,0,0-5.15,7.26-8.59,7.58s-5.61-1.05-5.92-4.48c-.22-2.42,1.32-14.42,1.32-14.42.14-1-.08-1.86-.48-1.82s-.68-.36-.63-.87a1.06,1.06,0,0,1,.82-1c.4,0,.82-.92.94-2l.31-2.63a2.93,2.93,0,0,1,2.08-2.33Z" transform="translate(-166.91 -373.36)"/><path class="cls-7" d="M311.08,412.74c2.16-.2,5.74-5.16,5.74-5.16a4,4,0,0,1,2.11-1.64c.54-.05.55.65,0,1.55,0,0-4.91,8.3-10.6,8.82-4.23.39-6.83-2.74-7.19-6.67-.53-5.8.92-16.2,8.94-16.94,3.61-.33,5.78,1,6.08,4.24.51,5.57-7.39,9.39-7.39,9.39-.95.46-1.72,1.16-1.72,1.55a9.16,9.16,0,0,0,1,2.9S309.36,412.9,311.08,412.74Zm.68-17.75c-2.46.23-4.15,8.08-4.15,8.08-.22,1,.32,1.4,1.2.83,0,0,5-3.25,4.73-6.49C313.45,396.45,313.09,394.87,311.76,395Z" transform="translate(-166.91 -373.36)"/><path class="cls-7" d="M330.35,394.53a1.45,1.45,0,0,0-1.78-1.41c-3.7.34-5.4,8-4.94,12.94.24,2.7,1,4.84,3.66,4.59,3.13-.28,6-3.56,6-3.56a4.73,4.73,0,0,1,2-1.5c.41,0,.4.72,0,1.68a13.58,13.58,0,0,1-10.78,7.55c-3.66.34-6.23-1.54-6.73-6.93-.61-6.67,1.36-15.74,9.91-16.53a5,5,0,0,1,3.83,1.32,5.81,5.81,0,0,1,1.33,1.85c0,.25-.37,1-.7.85l-.53,0-.4,0c-.54.2-.92,0-.85-.57Z" transform="translate(-166.91 -373.36)"/><path class="cls-7" d="M341,381.33a1.27,1.27,0,0,1,1.66,1.47l-.75,6.76c-.11,1,.5,1.41,1.36.81a4.67,4.67,0,0,1,2.1-.58c4.23-.39,5.88,2.59,6.13,5.28.66,7.17-2.2,17.62-10.09,18.34a7.55,7.55,0,0,1-6.67-3,6.5,6.5,0,0,1-1.11-2.29c0-.39.18-2.41.3-3.45l2.28-20.4A2.91,2.91,0,0,1,338.3,382Zm2.77,11.37a2.57,2.57,0,0,0-.57.09,3.66,3.66,0,0,0-2,2.66l-1,8.68c-.11,1-.29,2.75-.38,3.8a5.16,5.16,0,0,0,.05.64c.12,1.37.77,1.63,2.09,1.51,3.62-.33,4.87-10.95,4.56-14.23C346.35,393.1,344.88,392.6,343.78,392.7Z" transform="translate(-166.91 -373.36)"/><path class="cls-7" d="M360,379.59a1.27,1.27,0,0,1,1.65,1.47l-.74,6.76c-.12,1,.49,1.41,1.36.81a4.61,4.61,0,0,1,2.1-.58c4.23-.39,5.88,2.59,6.13,5.28.66,7.17-2.21,17.62-10.1,18.34a7.57,7.57,0,0,1-6.67-3,6.62,6.62,0,0,1-1.1-2.29c0-.39.17-2.41.29-3.45l2.29-20.4a2.91,2.91,0,0,1,2.07-2.34ZM362.74,391a2.57,2.57,0,0,0-.57.09,3.67,3.67,0,0,0-2,2.66l-1,8.68c-.12,1-.29,2.75-.39,3.8,0,0,0,.05,0,.64.13,1.37.78,1.63,2.1,1.51,3.61-.33,4.86-10.95,4.56-14.23C365.31,391.37,363.84,390.86,362.74,391Z" transform="translate(-166.91 -373.36)"/></svg>